HIERARCHY
ROOT Hips
{
	OFFSET -2.108698 85.844658 6.438918
	CHANNELS 6 Xposition Yposition Zposition Zrotation Yrotation Xrotation 
	JOINT Spine
	{
		OFFSET 0.000000 8.814246 -2.080107
		CHANNELS 3 Zrotation Yrotation Xrotation
		JOINT Spine1
		{
			OFFSET -0.000000 8.844141 -0.000000
			CHANNELS 3 Zrotation Yrotation Xrotation
			JOINT Spine2
			{
				OFFSET 0.000000 11.682268 0.000000
				CHANNELS 3 Zrotation Yrotation Xrotation
				JOINT Spine3
				{
					OFFSET -0.000000 11.746700 -0.000000
					CHANNELS 3 Zrotation Yrotation Xrotation
					JOINT Neck
					{
						OFFSET -0.000000 17.658264 -0.000000
						CHANNELS 3 Zrotation Yrotation Xrotation
						JOINT Neck1
						{
							OFFSET 0.000000 5.101515 0.000000
							CHANNELS 3 Zrotation Yrotation Xrotation
							JOINT Head
							{
								OFFSET -0.000000 5.101515 -0.000000
								CHANNELS 3 Zrotation Yrotation Xrotation
								JOINT HeadEnd
								{
									OFFSET 0.000000 11.655085 0.000000
									CHANNELS 3 Zrotation Yrotation Xrotation
									End Site
									{
										OFFSET 0.000000 0.000000 0.000000
									}
								}
							}
						}
					}
					JOINT RightShoulder
					{
						OFFSET -2.625389 11.175210 -0.000000
						CHANNELS 3 Zrotation Yrotation Xrotation
						JOINT RightArm
						{
							OFFSET 0.000000 10.434715 0.000000
							CHANNELS 3 Zrotation Yrotation Xrotation
							JOINT RightForeArm
							{
								OFFSET 0.000000 29.628420 0.000000
								CHANNELS 3 Zrotation Yrotation Xrotation
								JOINT RightHand
								{
									OFFSET -0.000000 22.857611 0.000000
									CHANNELS 3 Zrotation Yrotation Xrotation
									JOINT RightHandThumb1
									{
										OFFSET -2.867323 3.959563 2.944291
										CHANNELS 3 Zrotation Yrotation Xrotation
										JOINT RightHandThumb2
										{
											OFFSET -0.000000 3.350399 0.000000
											CHANNELS 3 Zrotation Yrotation Xrotation
											JOINT RightHandThumb3
											{
												OFFSET 0.000000 3.756509 -0.000000
												CHANNELS 3 Zrotation Yrotation Xrotation
												JOINT RightHandThumb4
												{
													OFFSET -0.000000 3.147345 0.000000
													CHANNELS 3 Zrotation Yrotation Xrotation
													End Site
													{
														OFFSET 0.000000 0.000000 0.000000
													}
												}
											}
										}
									}
									JOINT RightHandIndex1
									{
										OFFSET -0.086752 10.030893 2.345280
										CHANNELS 3 Zrotation Yrotation Xrotation
										JOINT RightHandIndex2
										{
											OFFSET 0.000000 4.061090 -0.000000
											CHANNELS 3 Zrotation Yrotation Xrotation
											JOINT RightHandIndex3
											{
												OFFSET -0.000000 3.248873 0.000000
												CHANNELS 3 Zrotation Yrotation Xrotation
												JOINT RightHandIndex4
												{
													OFFSET 0.000000 2.639709 0.000000
													CHANNELS 3 Zrotation Yrotation Xrotation
													End Site
													{
														OFFSET 0.000000 0.000000 0.000000
													}
												}
											}
										}
									}
									JOINT RightHandMiddle1
									{
										OFFSET 0.104102 9.502952 0.006768
										CHANNELS 3 Zrotation Yrotation Xrotation
										JOINT RightHandMiddle2
										{
											OFFSET 0.000000 4.568727 0.000000
											CHANNELS 3 Zrotation Yrotation Xrotation
											JOINT RightHandMiddle3
											{
												OFFSET -0.000000 3.654981 0.000000
												CHANNELS 3 Zrotation Yrotation Xrotation
												JOINT RightHandMiddle4
												{
													OFFSET 0.000000 2.741236 -0.000000
													CHANNELS 3 Zrotation Yrotation Xrotation
													End Site
													{
														OFFSET 0.000000 0.000000 0.000000
													}
												}
											}
										}
									}
									JOINT RightHandRing1
									{
										OFFSET 0.086752 8.921708 -2.267442
										CHANNELS 3 Zrotation Yrotation Xrotation
										JOINT RightHandRing2
										{
											OFFSET -0.000000 4.061090 0.000000
											CHANNELS 3 Zrotation Yrotation Xrotation
											JOINT RightHandRing3
											{
												OFFSET -0.000000 3.654981 0.000000
												CHANNELS 3 Zrotation Yrotation Xrotation
												JOINT RightHandRing4
												{
													OFFSET 0.000000 2.741236 -0.000000
													CHANNELS 3 Zrotation Yrotation Xrotation
													End Site
													{
														OFFSET 0.000000 0.000000 0.000000
													}
												}
											}
										}
									}
									JOINT RightHandPinky1
									{
										OFFSET -0.173504 7.976997 -4.467199
										CHANNELS 3 Zrotation Yrotation Xrotation
										JOINT RightHandPinky2
										{
											OFFSET 0.000000 3.350399 -0.000000
											CHANNELS 3 Zrotation Yrotation Xrotation
											JOINT RightHandPinky3
											{
												OFFSET -0.000000 2.842763 -0.000000
												CHANNELS 3 Zrotation Yrotation Xrotation
												JOINT RightHandPinky4
												{
													OFFSET 0.000000 2.639709 -0.000000
													CHANNELS 3 Zrotation Yrotation Xrotation
													End Site
													{
														OFFSET 0.000000 0.000000 0.000000
													}
												}
											}
										}
									}
									JOINT RightForeArmEnd
									{
										OFFSET 0.000000 0.000000 0.000000
										CHANNELS 3 Zrotation Yrotation Xrotation
										End Site
										{
											OFFSET 0.000000 0.000000 0.000000
										}
									}
								}
								JOINT RightArmEnd
								{
									OFFSET 0.000000 0.000000 0.000000
									CHANNELS 3 Zrotation Yrotation Xrotation
									End Site
									{
										OFFSET 0.000000 0.000000 0.000000
									}
								}
							}
						}
					}
					JOINT LeftShoulder
					{
						OFFSET 2.625389 11.175210 0.000000
						CHANNELS 3 Zrotation Yrotation Xrotation
						JOINT LeftArm
						{
							OFFSET 0.000000 10.813635 -0.000000
							CHANNELS 3 Zrotation Yrotation Xrotation
							JOINT LeftForeArm
							{
								OFFSET 0.000000 28.724781 -0.000000
								CHANNELS 3 Zrotation Yrotation Xrotation
								JOINT LeftHand
								{
									OFFSET 0.644384 25.716167 -0.328871
									CHANNELS 3 Zrotation Yrotation Xrotation
									JOINT LeftHandThumb1
									{
										OFFSET 2.867323 3.959563 2.944291
										CHANNELS 3 Zrotation Yrotation Xrotation
										JOINT LeftHandThumb2
										{
											OFFSET 0.000000 3.350399 0.000000
											CHANNELS 3 Zrotation Yrotation Xrotation
											JOINT LeftHandThumb3
											{
												OFFSET -0.000000 3.756509 -0.000000
												CHANNELS 3 Zrotation Yrotation Xrotation
												JOINT LeftHandThumb4
												{
													OFFSET -0.000000 3.100000 -0.000000
													CHANNELS 3 Zrotation Yrotation Xrotation
													End Site
													{
														OFFSET 0.000000 0.000000 0.000000
													}
												}
											}
										}
									}
									JOINT LeftHandIndex1
									{
										OFFSET 0.086752 10.030893 2.345280
										CHANNELS 3 Zrotation Yrotation Xrotation
										JOINT LeftHandIndex2
										{
											OFFSET -0.000000 4.061090 -0.000000
											CHANNELS 3 Zrotation Yrotation Xrotation
											JOINT LeftHandIndex3
											{
												OFFSET 0.000000 3.248873 0.000000
												CHANNELS 3 Zrotation Yrotation Xrotation
												JOINT LeftHandIndex4
												{
													OFFSET 0.000000 2.639709 0.000000
													CHANNELS 3 Zrotation Yrotation Xrotation
													End Site
													{
														OFFSET 0.000000 0.000000 0.000000
													}
												}
											}
										}
									}
									JOINT LeftHandMiddle1
									{
										OFFSET -0.104102 9.502952 0.006768
										CHANNELS 3 Zrotation Yrotation Xrotation
										JOINT LeftHandMiddle2
										{
											OFFSET -0.000000 4.568727 -0.000000
											CHANNELS 3 Zrotation Yrotation Xrotation
											JOINT LeftHandMiddle3
											{
												OFFSET 0.000000 3.654981 0.000000
												CHANNELS 3 Zrotation Yrotation Xrotation
												JOINT LeftHandMiddle4
												{
													OFFSET 0.000000 2.741236 0.000000
													CHANNELS 3 Zrotation Yrotation Xrotation
													End Site
													{
														OFFSET 0.000000 0.000000 0.000000
													}
												}
											}
										}
									}
									JOINT LeftHandRing1
									{
										OFFSET -0.086752 8.921708 -2.267442
										CHANNELS 3 Zrotation Yrotation Xrotation
										JOINT LeftHandRing2
										{
											OFFSET -0.000000 4.061090 -0.000000
											CHANNELS 3 Zrotation Yrotation Xrotation
											JOINT LeftHandRing3
											{
												OFFSET 0.000000 3.654981 0.000000
												CHANNELS 3 Zrotation Yrotation Xrotation
												JOINT LeftHandRing4
												{
													OFFSET 0.000000 2.741236 -0.000000
													CHANNELS 3 Zrotation Yrotation Xrotation
													End Site
													{
														OFFSET 0.000000 0.000000 0.000000
													}
												}
											}
										}
									}
									JOINT LeftHandPinky1
									{
										OFFSET 0.173504 7.976997 -4.467199
										CHANNELS 3 Zrotation Yrotation Xrotation
										JOINT LeftHandPinky2
										{
											OFFSET -0.000000 3.350399 -0.000000
											CHANNELS 3 Zrotation Yrotation Xrotation
											JOINT LeftHandPinky3
											{
												OFFSET 0.000000 2.842763 -0.000000
												CHANNELS 3 Zrotation Yrotation Xrotation
												JOINT LeftHandPinky4
												{
													OFFSET 0.000000 2.639709 -0.000000
													CHANNELS 3 Zrotation Yrotation Xrotation
													End Site
													{
														OFFSET 0.000000 0.000000 0.000000
													}
												}
											}
										}
									}
									JOINT LeftForeArmEnd
									{
										OFFSET 0.000000 0.000000 0.000000
										CHANNELS 3 Zrotation Yrotation Xrotation
										End Site
										{
											OFFSET 0.000000 0.000000 0.000000
										}
									}
								}
								JOINT LeftArmEnd
								{
									OFFSET 0.000000 0.000000 0.000000
									CHANNELS 3 Zrotation Yrotation Xrotation
									End Site
									{
										OFFSET 0.000000 0.000000 0.000000
									}
								}
							}
						}
					}
				}
			}
		}
	}
	JOINT RightUpLeg
	{
		OFFSET -11.289943 -0.000000 0.000000
		CHANNELS 3 Zrotation Yrotation Xrotation
		JOINT RightLeg
		{
			OFFSET -0.000000 -38.200325 -0.000000
			CHANNELS 3 Zrotation Yrotation Xrotation
			JOINT RightFoot
			{
				OFFSET -0.000000 -39.900856 -0.000000
				CHANNELS 3 Zrotation Yrotation Xrotation
				JOINT RightToeBase
				{
					OFFSET -0.000000 0.000000 15.261641
					CHANNELS 3 Zrotation Yrotation Xrotation
					JOINT RightToeBaseEnd
					{
						OFFSET -0.000000 -0.000000 7.370709
						CHANNELS 3 Zrotation Yrotation Xrotation
						End Site
						{
							OFFSET 0.000000 0.000000 0.000000
						}
					}
				}
				JOINT RightLegEnd
				{
					OFFSET 0.000000 0.000000 0.000000
					CHANNELS 3 Zrotation Yrotation Xrotation
					End Site
					{
						OFFSET 0.000000 0.000000 0.000000
					}
				}
			}
			JOINT RightUpLegEnd
			{
				OFFSET 0.000000 0.000000 0.000000
				CHANNELS 3 Zrotation Yrotation Xrotation
				End Site
				{
					OFFSET 0.000000 0.000000 0.000000
				}
			}
		}
	}
	JOINT LeftUpLeg
	{
		OFFSET 11.315661 0.000000 -0.000000
		CHANNELS 3 Zrotation Yrotation Xrotation
		JOINT LeftLeg
		{
			OFFSET 0.000000 -38.200325 0.000000
			CHANNELS 3 Zrotation Yrotation Xrotation
			JOINT LeftFoot
			{
				OFFSET -0.000000 -39.900856 -0.000000
				CHANNELS 3 Zrotation Yrotation Xrotation
				JOINT LeftToeBase
				{
					OFFSET 0.000000 0.000000 15.261641
					CHANNELS 3 Zrotation Yrotation Xrotation
					JOINT LeftToeBaseEnd
					{
						OFFSET -0.000000 -0.000000 7.539996
						CHANNELS 3 Zrotation Yrotation Xrotation
						End Site
						{
							OFFSET 0.000000 0.000000 0.000000
						}
					}
				}
				JOINT LeftLegEnd
				{
					OFFSET 0.000000 0.000000 0.000000
					CHANNELS 3 Zrotation Yrotation Xrotation
					End Site
					{
						OFFSET 0.000000 0.000000 0.000000
					}
				}
			}
			JOINT LeftUpLegEnd
			{
				OFFSET 0.000000 0.000000 0.000000
				CHANNELS 3 Zrotation Yrotation Xrotation
				End Site
				{
					OFFSET 0.000000 0.000000 0.000000
				}
			}
		}
	}
}
MOTION
Frames: 4
Frame Time: 0.016667
-2.108698 85.844658 6.438918 -7.415527 -1.903632 -14.317764 4.878398 -1.519334 7.599694 -0.138948 -0.232747 0.957899 3.412899 -3.761184 12.952163 2.698610 -0.512977 5.755898 4.556291 1.531530 7.276309 0.002701 3.856334 -2.828156 -2.277982 -1.222078 -19.073500 0.000000 0.000000 0.000000 94.321510 -1.037591 13.810943 44.616238 -45.942673 17.319399 -0.197257 10.944194 23.911335 10.406435 13.817125 -7.135664 11.236529 -1.888869 39.607235 0.000000 0.000000 -27.360001 0.000000 0.000000 -18.999998 0.000000 0.000000 0.000000 16.530746 0.000000 -9.140670 11.571522 0.000000 0.000000 11.571522 0.000000 0.000000 0.000000 0.000000 0.000000 15.272580 0.000000 -10.291648 10.690807 0.000000 0.000000 10.690807 0.000000 0.000000 0.000000 0.000000 0.000000 16.430185 0.000000 -8.922136 11.501128 0.000000 0.000000 11.501128 0.000000 0.000000 0.000000 0.000000 0.000000 16.884577 -0.000000 -9.284646 11.819202 0.000000 0.000000 11.819202 0.000000 0.000000 0.000000 0.000000 0.000000 0.000000 0.000000 0.000000 0.000000 0.000000 0.000000 -92.683983 0.471053 9.651094 -62.671444 33.930397 7.415953 -0.566112 -10.243218 36.904854 0.391114 -19.000113 -8.367141 -11.236529 1.888869 39.607235 0.000000 0.000000 -27.360001 0.000000 0.000000 -18.999998 0.000000 0.000000 0.000000 -16.127768 0.000000 -8.448822 -11.289435 0.000000 0.000000 -11.289435 0.000000 0.000000 0.000000 0.000000 0.000000 -14.988641 -0.000000 -8.949028 -10.492050 0.000000 0.000000 -10.492050 0.000000 0.000000 0.000000 0.000000 0.000000 -15.832511 -0.000000 -8.548198 -11.082759 0.000000 0.000000 -11.082759 0.000000 0.000000 0.000000 0.000000 0.000000 -15.561094 -0.000000 -8.333352 -10.892765 0.000000 0.000000 -10.892765 0.000000 0.000000 0.000000 0.000000 0.000000 0.000000 0.000000 0.000000 0.000000 0.000000 0.000000 9.930405 -10.229444 22.098465 -0.004235 -0.152081 3.296329 -5.634582 -11.296688 13.815320 0.503752 1.052147 -15.232955 0.000000 0.000000 0.000000 0.000000 0.000000 0.000000 0.000000 0.000000 0.000000 25.336544 19.119648 -3.088967 0.629053 1.026045 31.503611 -12.511561 20.980345 17.844845 2.856148 -0.605854 -18.039034 0.000000 0.000000 0.000000 0.000000 0.000000 0.000000 0.000000 0.000000 0.000000 
-1.941826 85.190331 5.970116 -6.244139 -1.219784 -16.965544 3.012931 -0.403359 10.220497 1.808271 -0.314370 2.229632 -2.662579 0.430648 15.834006 -0.355486 -0.038173 4.339464 8.279471 -2.339479 5.494772 -0.458415 -1.188051 -4.027806 -0.070687 0.435361 -19.768963 0.000000 0.000000 0.000000 99.936920 -1.579524 13.341013 52.664917 -26.884125 10.532795 0.305716 22.247219 26.629541 34.802906 18.425200 -7.596722 9.661529 -1.788944 40.275074 0.000018 0.000080 -23.939192 -0.000035 0.000029 -16.678642 -0.000120 -0.000044 0.000092 6.995828 3.445038 -8.299620 8.325114 0.073057 -1.327260 8.106712 0.258857 -1.249197 0.000040 -0.000069 0.000041 6.303314 1.452406 -10.235654 7.927829 -0.103461 -0.524254 8.020377 0.096004 -0.433589 -0.000148 0.000357 0.000031 7.660144 -1.948731 -11.611742 9.573059 0.216889 0.752288 9.705746 -0.162704 0.581452 0.000018 -0.002089 0.000025 8.726624 -5.467472 -13.906760 10.480531 0.160372 2.423136 10.255341 -0.544334 1.970907 -0.001698 0.000024 -0.000028 0.000000 0.000000 0.000000 0.000000 0.000000 0.000000 -98.184242 0.951286 10.254498 -51.318508 23.163292 13.685011 0.167336 -12.713063 41.815639 -5.292478 -8.408007 -6.086626 -12.191829 2.025495 39.152336 -0.000057 -0.000065 -29.776310 0.000035 0.000041 -20.661293 -0.000197 0.000050 -0.004239 -17.381826 3.624059 -10.979697 -14.160729 0.131903 1.738713 -14.128804 0.344853 1.569549 -0.000005 -0.000279 0.000065 -15.991551 1.523753 -12.050741 -13.981557 -0.076684 0.663236 -13.900433 0.108625 0.558209 -0.002479 0.000010 0.000090 -17.130201 -1.979789 -10.008831 -15.973557 0.229648 -0.942448 -16.345245 -0.163207 -0.693672 -0.000808 -0.000092 0.000026 -15.998487 -5.647729 -8.177808 -16.191313 0.313607 -2.753434 -16.154690 -0.494703 -2.176742 -0.000146 -0.000089 -0.000069 0.000000 0.000000 0.000000 0.000000 0.000000 0.000000 3.700143 -9.702022 9.229322 -0.119121 -0.457090 21.097178 -4.435290 -15.168328 14.057001 -0.222712 1.328988 -14.612005 0.000000 0.000000 0.000000 0.000000 0.000000 0.000000 0.000000 0.000000 0.000000 17.757898 -0.616934 5.843344 0.458612 0.767432 37.793137 -12.013716 16.469587 2.040885 1.884668 -0.859905 -16.255337 0.000000 0.000000 0.000000 0.000000 0.000000 0.000000 0.000000 0.000000 0.000000 
-1.838250 85.252129 6.012512 -6.077365 -0.411250 -17.192026 2.879251 -0.448006 10.252664 1.645382 -0.344356 2.429426 -2.338176 -0.388420 15.790920 -0.020302 -0.377756 4.462354 8.361959 -2.232071 5.191408 -0.382059 -0.774600 -4.006547 -0.057349 0.339064 -19.458942 0.000000 0.000000 0.000000 99.520546 -1.492697 13.151917 52.310001 -26.171406 10.268627 0.169313 22.995512 30.629383 31.492357 16.624142 -9.152451 9.805550 -1.806912 40.200500 0.000010 0.000036 -24.274677 0.000007 0.000035 -16.876369 0.000003 0.000001 -0.000015 7.377356 3.344710 -8.678414 8.400688 0.067579 -1.298696 8.253074 0.247159 -1.213152 -0.000006 0.000015 -0.000015 6.907869 1.406068 -10.298751 8.013982 -0.101565 -0.504957 8.076613 0.091573 -0.421763 0.000008 0.000243 -0.000014 8.237206 -1.881584 -11.210608 9.501737 0.219522 0.705495 9.667933 -0.151836 0.551500 -0.000010 -0.001410 -0.000017 9.053668 -5.247702 -13.001158 10.157342 0.199934 2.214616 9.984720 -0.496779 1.780478 -0.001529 0.000003 0.000064 0.000000 0.000000 0.000000 0.000000 0.000000 0.000000 -97.620949 0.834775 11.017660 -51.108822 23.477282 14.802790 0.264335 -12.777282 42.485142 -4.416343 -8.803875 -6.212867 -12.128863 2.016149 39.170666 0.000004 0.000036 -29.637938 -0.000014 -0.000037 -20.555099 -0.000840 0.000026 -0.003252 -16.618710 3.523262 -10.284537 -14.238937 0.123234 1.687467 -14.097879 0.334475 1.526130 -0.000003 0.000174 -0.000013 -15.666672 1.478883 -11.204946 -14.041006 -0.074241 0.642114 -13.942451 0.104863 0.541554 -0.001695 -0.000026 0.000080 -17.539450 -1.908803 -9.114696 -16.097544 0.221945 -0.904800 -16.354475 -0.157105 -0.670749 -0.000027 0.000005 0.000009 -16.921785 -5.418760 -7.304417 -16.270164 0.311493 -2.648319 -16.154898 -0.470859 -2.084506 -0.000520 -0.000000 -0.000042 0.000000 0.000000 0.000000 0.000000 0.000000 0.000000 3.354120 -10.324887 10.024382 -0.119082 -0.475078 20.078781 -4.140344 -15.099536 13.958279 -0.255247 1.328386 -14.682625 0.000000 0.000000 0.000000 0.000000 0.000000 0.000000 0.000000 0.000000 0.000000 17.291811 -0.605359 5.324536 0.453509 0.751525 37.582928 -11.129646 15.674293 2.839766 1.814835 -0.844484 -16.673546 0.000000 0.000000 0.000000 0.000000 0.000000 0.000000 0.000000 0.000000 0.000000 
-1.793407 85.243210 6.000968 -6.048347 0.319476 -17.348776 2.762742 -0.455088 10.304346 1.460832 -0.322584 2.587869 -1.981463 -0.865682 15.610683 0.123941 -0.565700 4.459013 8.166444 -2.431755 4.936276 -0.419489 -0.903983 -4.059206 -0.026574 0.280097 -19.355478 0.000000 0.000000 0.000000 98.990265 -1.385015 13.099220 52.238480 -25.053930 9.936557 0.154034 23.352682 33.397003 29.192862 16.414946 -9.932391 9.966653 -1.823165 40.125237 0.000007 0.000029 -24.671562 0.000011 0.000038 -17.138893 0.000011 0.000005 -0.000024 7.847148 3.316638 -8.823496 8.489941 0.053337 -1.237576 8.364363 0.232080 -1.151136 -0.000013 0.000021 -0.000020 7.534847 1.387396 -10.209113 8.094721 -0.105476 -0.476054 8.164574 0.085364 -0.400822 0.000022 0.000214 -0.000016 9.028497 -1.856781 -10.827442 9.614799 0.227349 0.663468 9.763629 -0.142836 0.520600 -0.000011 -0.001334 -0.000018 9.788658 -5.162919 -12.346756 10.138547 0.232430 2.085453 9.989900 -0.465365 1.657465 -0.001261 0.000000 0.000072 0.000000 0.000000 0.000000 0.000000 0.000000 0.000000 -96.969437 0.674850 11.570099 -50.510277 23.487602 15.380980 0.300829 -12.752563 44.037567 -2.501200 -9.906581 -5.555959 -12.081408 1.997050 39.203045 0.000005 0.000045 -29.572153 -0.000048 -0.000048 -20.498438 -0.001161 0.000024 -0.002576 -16.337246 3.492063 -9.682328 -14.380280 0.109542 1.617175 -14.182796 0.321516 1.464949 -0.000003 0.000543 -0.000020 -15.531099 1.467864 -10.492218 -14.152160 -0.078231 0.615321 -14.058157 0.100644 0.520085 -0.001178 -0.000033 0.000078 -17.831141 -1.887748 -8.353711 -16.188711 0.223140 -0.877258 -16.425529 -0.152488 -0.650043 0.000379 0.000014 0.000007 -17.470345 -5.345897 -6.622551 -16.354946 0.317276 -2.579913 -16.220985 -0.458105 -2.018718 -0.000652 0.000006 -0.000039 0.000000 0.000000 0.000000 0.000000 0.000000 0.000000 3.191580 -10.764241 10.454346 -0.122690 -0.487690 19.918619 -3.790564 -15.506925 13.715980 -0.233659 1.328381 -14.835174 0.000000 0.000000 0.000000 0.000000 0.000000 0.000000 0.000000 0.000000 0.000000 17.059507 -0.985109 4.813890 0.454660 0.762185 37.494247 -10.605577 14.935830 3.445899 1.810920 -0.840142 -17.011650 0.000000 0.000000 0.000000 0.000000 0.000000 0.000000 0.000000 0.000000 0.000000 
